<mxfile host="app.diagrams.net" modified="2023-03-08T03:34:13.280Z" agent="5.0 (Windows NT 10.0; Win64; x64) AppleWebKit/537.36 (KHTML, like Gecko) Chrome/109.0.0.0 Safari/537.36" etag="OqIcFX5jHGcvy-H7dJfl" version="20.8.23" type="github">
  <diagram name="第 1 页" id="8lZuXvovDlRcVOxskmfm">
    <mxGraphModel dx="2074" dy="1116" grid="1" gridSize="10" guides="1" tooltips="1" connect="1" arrows="1" fold="1" page="1" pageScale="1" pageWidth="2339" pageHeight="3300" math="0" shadow="0">
      <root>
        <mxCell id="0" />
        <mxCell id="1" parent="0" />
        <mxCell id="1nMUyH9mt-YglQkOy8UF-1" value="" style="rounded=0;whiteSpace=wrap;html=1;" vertex="1" parent="1">
          <mxGeometry x="710" y="280" width="70" height="260" as="geometry" />
        </mxCell>
        <mxCell id="1nMUyH9mt-YglQkOy8UF-2" value="" style="rounded=0;whiteSpace=wrap;html=1;" vertex="1" parent="1">
          <mxGeometry x="1060" y="280" width="70" height="260" as="geometry" />
        </mxCell>
        <mxCell id="1nMUyH9mt-YglQkOy8UF-3" value="" style="rounded=0;whiteSpace=wrap;html=1;" vertex="1" parent="1">
          <mxGeometry x="1420" y="280" width="70" height="260" as="geometry" />
        </mxCell>
        <mxCell id="1nMUyH9mt-YglQkOy8UF-5" value="" style="endArrow=classic;html=1;rounded=0;" edge="1" parent="1">
          <mxGeometry width="50" height="50" relative="1" as="geometry">
            <mxPoint x="550" y="402" as="sourcePoint" />
            <mxPoint x="680" y="402" as="targetPoint" />
          </mxGeometry>
        </mxCell>
        <mxCell id="1nMUyH9mt-YglQkOy8UF-6" value="" style="endArrow=classic;html=1;rounded=0;entryX=0.01;entryY=0.469;entryDx=0;entryDy=0;entryPerimeter=0;" edge="1" parent="1">
          <mxGeometry width="50" height="50" relative="1" as="geometry">
            <mxPoint x="830" y="400" as="sourcePoint" />
            <mxPoint x="1041" y="400" as="targetPoint" />
          </mxGeometry>
        </mxCell>
        <mxCell id="1nMUyH9mt-YglQkOy8UF-7" value="" style="endArrow=classic;html=1;rounded=0;entryX=0.01;entryY=0.469;entryDx=0;entryDy=0;entryPerimeter=0;" edge="1" parent="1">
          <mxGeometry width="50" height="50" relative="1" as="geometry">
            <mxPoint x="1169.5" y="400" as="sourcePoint" />
            <mxPoint x="1380.5" y="400" as="targetPoint" />
          </mxGeometry>
        </mxCell>
        <mxCell id="1nMUyH9mt-YglQkOy8UF-8" value="" style="endArrow=classic;html=1;rounded=0;entryX=0.01;entryY=0.469;entryDx=0;entryDy=0;entryPerimeter=0;" edge="1" parent="1">
          <mxGeometry width="50" height="50" relative="1" as="geometry">
            <mxPoint x="1520" y="400" as="sourcePoint" />
            <mxPoint x="1731" y="400" as="targetPoint" />
          </mxGeometry>
        </mxCell>
        <mxCell id="1nMUyH9mt-YglQkOy8UF-9" value="&lt;font style=&quot;font-size: 22px;&quot;&gt;read meta &amp;amp; tag&lt;/font&gt;" style="text;html=1;strokeColor=none;fillColor=none;align=center;verticalAlign=middle;whiteSpace=wrap;rounded=0;" vertex="1" parent="1">
          <mxGeometry x="520" y="560" width="210" height="50" as="geometry" />
        </mxCell>
        <mxCell id="1nMUyH9mt-YglQkOy8UF-11" value="&lt;font style=&quot;font-size: 22px;&quot;&gt;hit or miss&lt;/font&gt;" style="text;html=1;strokeColor=none;fillColor=none;align=center;verticalAlign=middle;whiteSpace=wrap;rounded=0;" vertex="1" parent="1">
          <mxGeometry x="830" y="570" width="210" height="50" as="geometry" />
        </mxCell>
        <mxCell id="1nMUyH9mt-YglQkOy8UF-12" value="&lt;font style=&quot;font-size: 22px;&quot;&gt;miss goes to mq&lt;/font&gt;" style="text;html=1;strokeColor=none;fillColor=none;align=center;verticalAlign=middle;whiteSpace=wrap;rounded=0;" vertex="1" parent="1">
          <mxGeometry x="1170" y="570" width="210" height="50" as="geometry" />
        </mxCell>
        <mxCell id="1nMUyH9mt-YglQkOy8UF-13" value="&lt;font style=&quot;font-size: 22px;&quot;&gt;s0&lt;/font&gt;" style="text;html=1;strokeColor=none;fillColor=none;align=center;verticalAlign=middle;whiteSpace=wrap;rounded=0;" vertex="1" parent="1">
          <mxGeometry x="510" y="230" width="210" height="50" as="geometry" />
        </mxCell>
        <mxCell id="1nMUyH9mt-YglQkOy8UF-14" value="&lt;font style=&quot;font-size: 22px;&quot;&gt;s1&lt;/font&gt;" style="text;html=1;strokeColor=none;fillColor=none;align=center;verticalAlign=middle;whiteSpace=wrap;rounded=0;" vertex="1" parent="1">
          <mxGeometry x="820" y="220" width="210" height="50" as="geometry" />
        </mxCell>
        <mxCell id="1nMUyH9mt-YglQkOy8UF-15" value="&lt;font style=&quot;font-size: 22px;&quot;&gt;s2&lt;/font&gt;" style="text;html=1;strokeColor=none;fillColor=none;align=center;verticalAlign=middle;whiteSpace=wrap;rounded=0;" vertex="1" parent="1">
          <mxGeometry x="1170" y="220" width="210" height="50" as="geometry" />
        </mxCell>
        <mxCell id="1nMUyH9mt-YglQkOy8UF-17" value="arb" style="rounded=1;whiteSpace=wrap;html=1;fontSize=22;" vertex="1" parent="1">
          <mxGeometry x="1520" y="70" width="180" height="60" as="geometry" />
        </mxCell>
        <mxCell id="1nMUyH9mt-YglQkOy8UF-18" value="&amp;nbsp;miss store queue" style="rounded=0;whiteSpace=wrap;html=1;fontSize=22;" vertex="1" parent="1">
          <mxGeometry x="1160" y="70" width="160" height="60" as="geometry" />
        </mxCell>
        <mxCell id="1nMUyH9mt-YglQkOy8UF-19" value="" style="endArrow=classic;html=1;rounded=0;" edge="1" parent="1">
          <mxGeometry width="50" height="50" relative="1" as="geometry">
            <mxPoint x="1340" y="99.5" as="sourcePoint" />
            <mxPoint x="1470" y="100" as="targetPoint" />
          </mxGeometry>
        </mxCell>
        <mxCell id="1nMUyH9mt-YglQkOy8UF-20" value="" style="endArrow=classic;html=1;rounded=0;" edge="1" parent="1">
          <mxGeometry width="50" height="50" relative="1" as="geometry">
            <mxPoint x="1330" y="200" as="sourcePoint" />
            <mxPoint x="1470" y="110" as="targetPoint" />
          </mxGeometry>
        </mxCell>
        <mxCell id="1nMUyH9mt-YglQkOy8UF-22" value="miss queue" style="rounded=0;whiteSpace=wrap;html=1;fontSize=22;" vertex="1" parent="1">
          <mxGeometry x="1770" y="70" width="160" height="60" as="geometry" />
        </mxCell>
        <mxCell id="1nMUyH9mt-YglQkOy8UF-23" value="" style="endArrow=classic;html=1;rounded=0;" edge="1" parent="1">
          <mxGeometry width="50" height="50" relative="1" as="geometry">
            <mxPoint x="1720" y="99.5" as="sourcePoint" />
            <mxPoint x="1760" y="99.5" as="targetPoint" />
          </mxGeometry>
        </mxCell>
      </root>
    </mxGraphModel>
  </diagram>
</mxfile>
